<svg width="720" height="1280" xmlns="http://www.w3.org/2000/svg" xmlns:xlink="http://www.w3.org/1999/xlink" overflow="hidden"><g><rect x="0" y="0" width="720" height="1280" fill="#FFFFFF"/><path d="M18.5001 171.5C18.5001 146.095 54.3173 125.5 98.5001 125.5 142.683 125.5 178.5 146.095 178.5 171.5 178.5 196.905 142.683 217.5 98.5001 217.5 54.3173 217.5 18.5001 196.905 18.5001 171.5Z" stroke="#000000" stroke-width="1.33333" stroke-miterlimit="8" fill="none" fill-rule="evenodd"/><text font-family="Calibri,Calibri_MSFontService,sans-serif" font-weight="400" font-size="19" transform="translate(64.9161 165)">Bacterial</text><text font-family="Calibri,Calibri_MSFontService,sans-serif" font-weight="400" font-size="19" transform="translate(79.8294 188)">WGS</text><path d="M518.5 171.5C518.5 146.095 554.317 125.5 598.5 125.5 642.683 125.5 678.5 146.095 678.5 171.5 678.5 196.905 642.683 217.5 598.5 217.5 554.317 217.5 518.5 196.905 518.5 171.5Z" stroke="#000000" stroke-width="1.33333" stroke-miterlimit="8" fill="none" fill-rule="evenodd"/><text font-family="Calibri,Calibri_MSFontService,sans-serif" font-weight="400" font-size="19" transform="translate(558.565 165)">Viral Gene</text><text font-family="Calibri,Calibri_MSFontService,sans-serif" font-weight="400" font-size="19" transform="translate(562.572 188)">Database</text><path d="M268.5 172C268.5 146.871 304.317 126.5 348.5 126.5 392.683 126.5 428.5 146.871 428.5 172 428.5 197.129 392.683 217.5 348.5 217.5 304.317 217.5 268.5 197.129 268.5 172Z" stroke="#000000" stroke-width="1.33333" stroke-miterlimit="8" fill="none" fill-rule="evenodd"/><text font-family="Calibri,Calibri_MSFontService,sans-serif" font-weight="400" font-size="19" transform="translate(330.862 166)">Viral</text><text font-family="Calibri,Calibri_MSFontService,sans-serif" font-weight="400" font-size="19" transform="translate(311.922 189)">Genomes</text><rect x="528.5" y="462.5" width="140" height="77" stroke="#000000" stroke-width="1.33333" stroke-miterlimit="8" fill="#8FAADC"/><text font-family="Calibri,Calibri_MSFontService,sans-serif" font-weight="400" font-size="19" transform="translate(554.732 507)">FraHMMER</text><rect x="278.5" y="302.5" width="140" height="76" stroke="#000000" stroke-width="1.33333" stroke-miterlimit="8" fill="#C5E0B4"/><text font-family="Calibri,Calibri_MSFontService,sans-serif" font-weight="400" font-size="19" transform="translate(303.172 346)">HMMBUILD</text><rect x="278.5" y="623.5" width="140" height="77" stroke="#000000" stroke-width="1.33333" stroke-miterlimit="8" fill="#C5E0B4"/><text font-family="Calibri,Calibri_MSFontService,sans-serif" font-weight="400" font-size="19" transform="translate(312.761 656)">Reformat</text><text font-family="Calibri,Calibri_MSFontService,sans-serif" font-weight="400" font-size="19" transform="translate(302.448 679)">Integrations</text><rect x="528.5" y="623.5" width="140" height="77" stroke="#000000" stroke-width="1.33333" stroke-miterlimit="8" fill="#8FAADC"/><text font-family="Calibri,Calibri_MSFontService,sans-serif" font-weight="400" font-size="19" transform="translate(562.739 656)">Reformat</text><text font-family="Calibri,Calibri_MSFontService,sans-serif" font-weight="400" font-size="19" transform="translate(566.712 679)">Proteins</text><path d="M18.5001 807C18.5001 781.871 54.3173 761.5 98.5001 761.5 142.683 761.5 178.5 781.871 178.5 807 178.5 832.129 142.683 852.5 98.5001 852.5 54.3173 852.5 18.5001 832.129 18.5001 807Z" stroke="#000000" stroke-width="1.33333" stroke-miterlimit="8" fill="none" fill-rule="evenodd"/><text font-family="Calibri,Calibri_MSFontService,sans-serif" font-weight="400" font-size="19" transform="translate(64.9194 790)">Bacterial</text><text font-family="Calibri,Calibri_MSFontService,sans-serif" font-weight="400" font-size="19" transform="translate(78.0661 813)">Gene</text><text font-family="Calibri,Calibri_MSFontService,sans-serif" font-weight="400" font-size="19" transform="translate(51.7661 835)">Annotations</text><path d="M268.5 807C268.5 781.871 304.317 761.5 348.5 761.5 392.683 761.5 428.5 781.871 428.5 807 428.5 832.129 392.683 852.5 348.5 852.5 304.317 852.5 268.5 832.129 268.5 807Z" stroke="#000000" stroke-width="1.33333" stroke-miterlimit="8" fill="none" fill-rule="evenodd"/><text font-family="Calibri,Calibri_MSFontService,sans-serif" font-weight="400" font-size="19" transform="translate(306.135 801)">Integration</text><text font-family="Calibri,Calibri_MSFontService,sans-serif" font-weight="400" font-size="19" transform="translate(301.622 824)">Annotations</text><path d="M518.5 807C518.5 781.871 554.317 761.5 598.5 761.5 642.683 761.5 678.5 781.871 678.5 807 678.5 832.129 642.683 852.5 598.5 852.5 554.317 852.5 518.5 832.129 518.5 807Z" stroke="#000000" stroke-width="1.33333" stroke-miterlimit="8" fill="none" fill-rule="evenodd"/><text font-family="Calibri,Calibri_MSFontService,sans-serif" font-weight="400" font-size="19" transform="translate(558.569 801)">Viral Gene</text><text font-family="Calibri,Calibri_MSFontService,sans-serif" font-weight="400" font-size="19" transform="translate(551.575 824)">Annotations</text><rect x="28.5001" y="462.5" width="140" height="77" stroke="#000000" stroke-width="1.33333" stroke-miterlimit="8" fill="#FFE699"/><text font-family="Calibri,Calibri_MSFontService,sans-serif" font-weight="400" font-size="19" transform="translate(72.4 495)">Prokka</text><text font-family="Calibri,Calibri_MSFontService,sans-serif" font-weight="400" font-size="19" transform="translate(55.2933 518)">Annotation</text><rect x="278.5" y="462.5" width="140" height="77" stroke="#000000" stroke-width="1.33333" stroke-miterlimit="8" fill="#C5E0B4"/><text font-family="Calibri,Calibri_MSFontService,sans-serif" font-weight="400" font-size="19" transform="translate(310.568 507)">NHMMER</text><rect x="278.5" y="913.5" width="140" height="76" stroke="#000000" stroke-width="1.33333" stroke-miterlimit="8" fill="#FF3333"/><text font-family="Calibri,Calibri_MSFontService,sans-serif" font-weight="400" font-size="19" transform="translate(302.294 957)">VIBES</text><text font-family="Calibri,Calibri_MSFontService,sans-serif" font-weight="400" font-size="19" transform="translate(345.281 957)">-</text><text font-family="Calibri,Calibri_MSFontService,sans-serif" font-weight="400" font-size="19" transform="translate(350.948 957)">SODA</text><path d="M268.5 1120C268.5 1094.87 304.317 1074.5 348.5 1074.5 392.683 1074.5 428.5 1094.87 428.5 1120 428.5 1145.13 392.683 1165.5 348.5 1165.5 304.317 1165.5 268.5 1145.13 268.5 1120Z" stroke="#000000" stroke-width="1.33333" stroke-miterlimit="8" fill="none" fill-rule="evenodd"/><text font-family="Calibri,Calibri_MSFontService,sans-serif" font-weight="400" font-size="19" transform="translate(307.555 1103)">Interactive</text><text font-family="Calibri,Calibri_MSFontService,sans-serif" font-weight="400" font-size="19" transform="translate(320.842 1126)">Output</text><text font-family="Calibri,Calibri_MSFontService,sans-serif" font-weight="400" font-size="19" transform="translate(321.675 1148)">Visuals</text><path d="M2-0.0011339 2.13375 235.915-1.86625 235.917-2 0.0011339ZM6.13262 233.913 0.139423 245.916-5.86738 233.92Z" transform="matrix(-1 0 0 1 98.1394 217)"/><path d="M350 217 350 291.83 346 291.83 346 217ZM354 289.83 348 301.83 342 289.83Z"/><path d="M600 217 600 452.917 596 452.917 596 217ZM604 450.916 598 462.916 592 450.916Z"/><path d="M2-0.000503081 2.01869 74.3093-1.98131 74.3103-2 0.000503081ZM6.01819 72.3083 0.0212073 84.3098-5.98181 72.3113Z" transform="matrix(-1 0 0 1 348.021 378)"/><path d="M350 539 350 613.31 346 613.31 346 539ZM354 611.31 348 623.31 342 611.31Z"/><path d="M350 699.999 350.018 750.994 346.018 750.995 346 700.001ZM354.017 748.993 348.021 760.995 342.017 748.997Z"/><path d="M100 538.999 100.133 750.75 96.1331 750.753 96 539.001ZM104.132 748.748 98.1394 760.751 92.1319 748.755Z"/><path d="M2-0.000695383 2.01773 50.9941-1.98227 50.9954-2 0.000695383ZM6.01703 48.9927 0.0212073 60.9947-5.98296 48.9968Z" transform="matrix(-1 0 0 1 348.021 852)"/><path d="M350 989 350.019 1063.31 346.019 1063.31 346 989ZM354.018 1061.31 348.021 1073.31 342.018 1061.31Z"/><path d="M600 539 600 613.31 596 613.31 596 539ZM604 611.31 598 623.31 592 611.31Z"/><path d="M600 700 600 750.995 596 750.995 596 700ZM604 748.995 598 760.995 592 748.995Z"/><path d="M0-2 44.5797-2 44.5797 230.4 42.5797 228.4 75.1595 228.4 75.1595 232.4 40.5797 232.4 40.5797 0 42.5797 2 0 2ZM73.1595 224.4 85.1595 230.4 73.1595 236.4Z" transform="matrix(1.83697e-16 1 1 -1.83697e-16 98 217)"/><path d="M0-2 43.1382-2 43.1382 230.4 41.1382 228.4 235.587 228.4 235.587 232.4 39.1382 232.4 39.1382 0 41.1382 2 0 2ZM233.587 224.4 245.587 230.4 233.587 236.4Z" transform="matrix(1.83697e-16 1 1 -1.83697e-16 348 217)"/><path d="M0-2 101.218-2 101.218 169.846 97.2183 169.846 97.2183 0 99.2183 2 0 2ZM105.218 167.846 99.2183 179.846 93.2183 167.846Z" transform="matrix(1.83697e-16 1 1 -1.83697e-16 97.9999 852)"/><path d="M599.985 852 599.985 953.218 428 953.218 428 949.218 597.985 949.218 595.985 951.218 595.985 852ZM430 957.218 418 951.218 430 945.218Z"/></g></svg>